<?xml version="1.0" encoding="utf-8"?>
<svg id="svg2" viewBox="0 0 500 670" xmlns="http://www.w3.org/2000/svg">
  <desc>Source: openclipart.org/detail/209545</desc>
  <rect x="-386.61" y="530.215" width="155.78" height="28.633" rx="15" ry="15" style="stroke-width: 0.986; stroke: rgb(26, 54, 93); fill: rgb(26, 54, 93);" transform="matrix(-1, 0, 0, 1, 0, 0)"/>
  <rect x="-323.05" y="506.446" width="26.427" height="48.675" rx="15" ry="15" style="stroke-width: 0.986; stroke: rgb(26, 54, 93); fill: rgb(26, 54, 93);" transform="matrix(-1, 0, 0, 1, 0, 0)"/>
  <rect x="-57.885" y="-347.52" width="24.695" height="215.655" rx="15" ry="15" style="stroke-width: 0.986; transform-box: fill-box; transform-origin: 50% 50%; stroke: rgb(26, 54, 93); fill: rgb(26, 54, 93);" transform="matrix(-0.693988, -0.719986, -0.699955, 0.71477, 426.643879, 685.169239)"/>
  <rect x="57.874" y="369.8" width="24.691" height="229.48" rx="15" ry="15" style="stroke-width: 0.986; transform-origin: 70.219px 484.539px; stroke: rgb(26, 54, 93); fill: rgb(26, 54, 93);" transform="matrix(0.698344, -0.715763, -0.695606, -0.719003, 308.479411, -184.824896)"/>
  <rect x="57.874" y="337.63" width="24.691" height="209.518" rx="15" ry="15" style="stroke-width: 0.986; transform-origin: 70.219px 442.387px; stroke: rgb(26, 54, 93); fill: rgb(26, 54, 93);" transform="matrix(0.698344, -0.715763, -0.695606, -0.719003, 116.511423, -151.664422)"/>
  <rect x="57.874" y="204.18" width="24.691" height="126.706" rx="15" ry="15" style="stroke-width: 0.986; transform-origin: 70.219px 267.53px; stroke: rgb(26, 54, 93); fill: rgb(26, 54, 93);" transform="matrix(0.698344, -0.715763, -0.695606, -0.719003, 180.81565, -48.986039)"/>
  <rect x="57.308" y="201.34" width="24.449" height="124.938" rx="15" ry="15" style="stroke-width: 0.986; transform-origin: 69.533px 263.814px; stroke: rgb(26, 54, 93); fill: rgb(26, 54, 93);" transform="matrix(0.911986, 0.410222, 0.390903, -0.920675, 201.633399, 45.501437)"/>
  <rect x="58.445" y="190.06" width="24.934" height="117.941" rx="15" ry="15" style="stroke-width: 0.986; transform-origin: 70.912px 249.03px; stroke: rgb(26, 54, 93); fill: rgb(26, 54, 93);" transform="matrix(0.389177, 0.921163, 0.912947, -0.408624, 95.860923, -48.812806)"/>
  <rect x="55.337" y="92.613" width="23.608" height="57.47" rx="15" ry="15" style="stroke-width: 0.986; transform-origin: 67.14px 121.348px; stroke: rgb(26, 54, 93); fill: rgb(26, 54, 93);" transform="matrix(0.669015, 0.743249, 0.723994, -0.690407, 179.346965, 46.825212)"/>
  <rect x="55.337" y="92.613" width="23.608" height="57.47" rx="15" ry="15" style="stroke-width: 0.986; transform-origin: 67.14px 121.348px; stroke: rgb(26, 54, 93); fill: rgb(26, 54, 93);" transform="matrix(0.669015, 0.743249, 0.723994, -0.690407, 233.283488, 100.657274)"/>
  <path style="fill: rgba(0, 0, 0, 0); stroke-width: 24.642; transform-origin: 258.765px 163.574px; stroke: rgb(26, 54, 93);" d="M 309.777 213.114 C 331.618 191.827 323.785 155.172 295.678 147.134 C 282.924 143.488 268.967 147.022 258.857 156.462"/>
  <path style="stroke-width: 24.642; transform-origin: 402.286px 304.86px; stroke: rgb(26, 54, 93); fill: rgba(0, 0, 0, 0);" d="M 137.653 250.159 C 105.41 282.235 118.994 338.21 162.104 350.912 C 183.658 357.264 206.84 350.319 221.716 333.054"/>
</svg>